<svg xmlns="http://www.w3.org/2000/svg" viewBox="0 0 480 520" fill="none" role="img" aria-label="Asistente IA Cotízalo Antes">
  <defs>
    <linearGradient id="bodyGrad" x1="240" y1="180" x2="240" y2="420" gradientUnits="userSpaceOnUse">
      <stop stop-color="#FFFFFF"/>
      <stop offset="1" stop-color="#F4F4F5"/>
    </linearGradient>
    <linearGradient id="visorGrad" x1="240" y1="120" x2="240" y2="200" gradientUnits="userSpaceOnUse">
      <stop stop-color="#1A1A1A"/>
      <stop offset="1" stop-color="#2D2D2D"/>
    </linearGradient>
    <radialGradient id="glowGrad" cx="0" cy="0" r="1" gradientUnits="userSpaceOnUse" gradientTransform="translate(240 260) scale(200)">
      <stop stop-color="#F58220" stop-opacity="0.35"/>
      <stop offset="1" stop-color="#F58220" stop-opacity="0"/>
    </radialGradient>
    <filter id="softShadow" x="-20%" y="-20%" width="140%" height="140%">
      <feDropShadow dx="0" dy="12" stdDeviation="16" flood-color="#1A1A1A" flood-opacity="0.12"/>
    </filter>
  </defs>

  <ellipse cx="240" cy="270" rx="180" ry="160" fill="url(#glowGrad)"/>

  <g filter="url(#softShadow)">
    <rect x="150" y="200" width="180" height="200" rx="48" fill="url(#bodyGrad)" stroke="#E5E5E5" stroke-width="2"/>
    <rect x="175" y="230" width="130" height="8" rx="4" fill="#F58220" opacity="0.85"/>
    <circle cx="210" cy="290" r="10" fill="#F58220" opacity="0.9"/>
    <circle cx="240" cy="290" r="10" fill="#F58220" opacity="0.7"/>
    <circle cx="270" cy="290" r="10" fill="#F58220" opacity="0.5"/>
    <rect x="195" y="330" width="90" height="36" rx="18" fill="#FEF3E8" stroke="#F58220" stroke-width="1.5" opacity="0.9"/>
    <text x="240" y="353" text-anchor="middle" font-family="system-ui,sans-serif" font-size="13" font-weight="600" fill="#F58220">IA</text>
  </g>

  <g filter="url(#softShadow)">
    <rect x="130" y="90" width="220" height="130" rx="56" fill="url(#visorGrad)" stroke="#3D3D3D" stroke-width="2"/>
    <rect x="165" y="125" width="150" height="60" rx="30" fill="#0A0A0A" opacity="0.6"/>
    <ellipse cx="205" cy="155" rx="22" ry="16" fill="#F58220" opacity="0.95"/>
    <ellipse cx="275" cy="155" rx="22" ry="16" fill="#F58220" opacity="0.95"/>
    <circle cx="205" cy="155" r="6" fill="#FFFFFF" opacity="0.9"/>
    <circle cx="275" cy="155" r="6" fill="#FFFFFF" opacity="0.9"/>
    <path d="M215 175 Q240 188 265 175" stroke="#F58220" stroke-width="3" stroke-linecap="round" fill="none" opacity="0.8"/>
  </g>

  <rect x="108" y="248" width="28" height="80" rx="14" fill="#FFFFFF" stroke="#E5E5E5" stroke-width="2"/>
  <rect x="344" y="248" width="28" height="80" rx="14" fill="#FFFFFF" stroke="#E5E5E5" stroke-width="2"/>
  <circle cx="122" cy="340" r="16" fill="#F58220" opacity="0.9"/>
  <circle cx="358" cy="340" r="16" fill="#F58220" opacity="0.9"/>

  <line x1="240" y1="50" x2="240" y2="82" stroke="#F58220" stroke-width="3" stroke-linecap="round"/>
  <circle cx="240" cy="42" r="10" fill="#F58220"/>
  <circle cx="240" cy="42" r="18" stroke="#F58220" stroke-width="1.5" opacity="0.4" fill="none"/>
  <circle cx="240" cy="42" r="26" stroke="#F58220" stroke-width="1" opacity="0.2" fill="none"/>
</svg>
